<?xml version="1.0" encoding="UTF-8"?>
<svg width="78px" height="51px" viewBox="0 0 78 51" version="1.1" xmlns="http://www.w3.org/2000/svg" xmlns:xlink="http://www.w3.org/1999/xlink">
    <!-- Generator: Sketch 52.2 (67145) - http://www.bohemiancoding.com/sketch -->
    <title>008-bed</title>
    <desc>Created with Sketch.</desc>
    <g id="Page-1" stroke="none" stroke-width="1" fill="none" fill-rule="evenodd">
        <g id="Artboard" transform="translate(-1063.000000, -1070.000000)" fill="#009AF2">
            <g id="008-bed" transform="translate(1063.000000, 1070.000000)">
                <path d="M9.07362582,15.2817644 C9.07362582,11.1237889 12.3642311,7.74085575 16.4090839,7.74085575 L32.8754301,7.74085575 C35.4323291,7.74085575 37.6867267,9.09363307 39.0000802,11.1384715 C40.3135942,9.0934681 42.5678314,7.74085575 45.1247304,7.74085575 L61.591237,7.74085575 C65.6359294,7.74085575 68.9265347,11.1237889 68.9265347,15.2817644 L68.9265347,15.6290323 L70.7628866,15.6290323 L70.7628866,8.27553274 C70.7628866,3.71238389 67.1516459,0 62.7128191,0 L15.2871809,0 C10.8483541,0 7.2371134,3.71238389 7.2371134,8.27553274 L7.2371134,15.6290323 L9.07346534,15.6290323 L9.07346534,15.2817644 L9.07362582,15.2817644 Z" id="Path"></path>
                <path d="M74.8969527,19.7419355 L3.10288575,19.7419355 C1.39194573,19.7419355 0,21.1533914 0,22.8883127 L0,41.1537113 C0,42.8886327 1.39194573,44.3000885 3.10288575,44.3000885 L4.39452999,44.3000885 L2.86836438,48.6677731 C2.55033918,49.5777346 3.02018951,50.5767925 3.91741144,50.8991115 C4.10783891,50.9674078 4.30214278,51 4.49321632,51 C5.20275654,51 5.8675568,50.5522255 6.11806827,49.8351968 L8.05222354,44.2999248 L69.9477765,44.2999248 L71.8819317,49.8351968 C72.1324432,50.5522255 72.7970819,51 73.5067837,51 C73.6978572,51 73.8921611,50.9674078 74.0825886,50.8991115 C74.979972,50.5766287 75.4496608,49.5775709 75.1316356,48.6677731 L73.60547,44.3000885 L74.8971142,44.3000885 C76.6080543,44.3000885 78,42.8886327 78,41.1537113 L78,22.8883127 C78,21.1533914 76.6080543,19.7419355 74.8969527,19.7419355 Z" id="Path"></path>
                <path d="M44.8940521,11.516129 C42.7526057,11.516129 41.0103093,13.2144032 41.0103093,15.3019331 L41.0103093,15.6290323 L65.1340206,15.6290323 L65.1340206,15.3019331 C65.1340206,13.2144032 63.3918836,11.516129 61.2504372,11.516129 L44.8940521,11.516129 Z" id="Path"></path>
                <path d="M16.7497222,11.516129 C14.6081164,11.516129 12.8659794,13.2145585 12.8659794,15.3020885 L12.8659794,15.6290323 L36.9896907,15.6290323 L36.9896907,15.3019331 C36.9896907,13.2144032 35.2475537,11.516129 33.1059479,11.516129 L16.7497222,11.516129 Z" id="Path"></path>
            </g>
        </g>
    </g>
</svg>