<?xml version="1.0" encoding="UTF-8"?>
<svg width="63px" height="64px" viewBox="0 0 63 64" version="1.1" xmlns="http://www.w3.org/2000/svg" xmlns:xlink="http://www.w3.org/1999/xlink">
    <!-- Generator: Sketch 52.2 (67145) - http://www.bohemiancoding.com/sketch -->
    <title>005-building</title>
    <desc>Created with Sketch.</desc>
    <g id="Page-1" stroke="none" stroke-width="1" fill="none" fill-rule="evenodd">
        <g id="Artboard" transform="translate(-1359.000000, -1066.000000)" fill="#009AF2" fill-rule="nonzero">
            <g id="005-building" transform="translate(1359.000000, 1066.000000)">
                <path d="M0,64 L31.5,64 L31.5,0 L0,0 L0,64 Z M19.6875,8 L27.5625,8 L27.5625,16 L19.6875,16 L19.6875,8 Z M19.6875,24 L27.5625,24 L27.5625,32 L19.6875,32 L19.6875,24 Z M19.6875,40 L27.5625,40 L27.5625,48 L19.6875,48 L19.6875,40 Z M3.9375,8 L11.8125,8 L11.8125,16 L3.9375,16 L3.9375,8 Z M3.9375,24 L11.8125,24 L11.8125,32 L3.9375,32 L3.9375,24 Z M3.9375,40 L11.8125,40 L11.8125,48 L3.9375,48 L3.9375,40 Z M35.4375,20 L63,20 L63,24 L35.4375,24 L35.4375,20 Z M35.4375,64 L43.3125,64 L43.3125,48 L55.125,48 L55.125,64 L63,64 L63,28 L35.4375,28 L35.4375,64 Z" id="Shape"></path>
            </g>
        </g>
    </g>
</svg>