<?xml version="1.0" encoding="UTF-8"?>
<svg width="71px" height="51px" viewBox="0 0 71 51" version="1.1" xmlns="http://www.w3.org/2000/svg" xmlns:xlink="http://www.w3.org/1999/xlink">
    <!-- Generator: Sketch 52.2 (67145) - http://www.bohemiancoding.com/sketch -->
    <title>002-english</title>
    <desc>Created with Sketch.</desc>
    <g id="Page-1" stroke="none" stroke-width="1" fill="none" fill-rule="evenodd">
        <g id="Artboard" transform="translate(-1359.000000, -1294.000000)" fill="#009AF2">
            <g id="002-english" transform="translate(1359.000000, 1294.000000)">
                <path d="M42.2499825,15.1249 C41.1719727,15.1249 40.093963,15.5211417 40.093963,16.454725 L40.093963,26.0738917 L35.6163957,17.3317833 C34.5659279,15.266425 33.9856101,15.1249 32.4377271,15.1249 C31.3597173,15.1249 30.281846,15.5493333 30.281846,16.4829167 L30.281846,34.4480917 C30.281846,35.3534833 31.3597173,35.8061083 32.4377271,35.8061083 C33.5157368,35.8061083 34.5936082,35.3534833 34.5936082,34.4480917 L34.5936082,24.828925 L39.845117,34.61795 C40.3703509,35.6082 41.2548752,35.80625 42.2498441,35.80625 C43.3277154,35.80625 44.4055867,35.353625 44.4055867,34.4482333 L44.4055867,16.4545833 C44.4055867,15.5211417 43.3277154,15.1249 42.2499825,15.1249 Z" id="Path"></path>
                <path d="M27.103731,18.9725667 C27.9328947,18.9725667 28.4029064,18.0673167 28.4029064,17.0205417 C28.4029064,16.11515 28.0157973,15.1249 27.103731,15.1249 L17.2639337,15.1249 C16.3241871,15.1249 15.3844405,15.577525 15.3844405,16.4829167 L15.3844405,34.4482333 C15.3844405,35.353625 16.3241871,35.80625 17.2639337,35.80625 L27.103731,35.80625 C28.0157973,35.80625 28.4029064,34.816 28.4029064,33.9106083 C28.4029064,32.863975 27.9328947,31.9585833 27.103731,31.9585833 L19.6963411,31.9585833 L19.6963411,27.149 L23.8422982,27.149 C24.7545029,27.149 25.1413353,26.24375 25.1413353,25.4798833 C25.1413353,24.5744917 24.671462,23.7539583 23.8422982,23.7539583 L19.6963411,23.7539583 L19.6963411,18.9725667 L27.103731,18.9725667 Z" id="Path"></path>
                <path d="M60.6395361,25.5 L70.5939298,4.048975 C71.0012456,3.17120833 70.9407641,2.14086667 70.4335224,1.31948333 C69.9261423,0.4981 69.0428635,0 68.0935673,0 L2.76803119,0 C1.23924756,0 0,1.26848333 0,2.83333333 L0,48.1666667 C0,49.7315167 1.23924756,51 2.76803119,51 L68.0935673,51 C69.0428635,51 69.9261423,50.5019 70.433384,49.6805167 C70.9406257,48.8591333 71.0012456,47.8289333 70.5937914,46.951025 L60.6395361,25.5 Z M5.53606238,45.3333333 L5.53606238,5.66666667 L63.7142651,5.66666667 L55.0746862,24.2843583 C54.7177485,25.0536083 54.7177485,25.9463917 55.0746862,26.7156417 L63.7142651,45.3333333 L5.53606238,45.3333333 Z" id="Shape" fill-rule="nonzero"></path>
            </g>
        </g>
    </g>
</svg>