<?xml version="1.0" encoding="UTF-8"?>
<svg width="62px" height="63px" viewBox="0 0 62 63" version="1.1" xmlns="http://www.w3.org/2000/svg" xmlns:xlink="http://www.w3.org/1999/xlink">
    <!-- Generator: Sketch 52.2 (67145) - http://www.bohemiancoding.com/sketch -->
    <title>004-screwdriver-and-wrench-crossed</title>
    <desc>Created with Sketch.</desc>
    <g id="Page-1" stroke="none" stroke-width="1" fill="none" fill-rule="evenodd">
        <g id="Artboard" transform="translate(-786.000000, -1291.000000)" fill="#009AF2">
            <g id="004-screwdriver-and-wrench-crossed" transform="translate(786.000000, 1291.000000)">
                <path d="M1.70169447,52.9261157 C-0.56723149,55.2320983 -0.56723149,58.966537 1.70169447,61.2725195 C2.83615745,62.4255108 4.32291914,63 5.8098082,63 C7.29669726,63 8.78345895,62.4255108 9.91792193,61.2725195 L28.987013,41.8879749 L20.7707855,33.5454545 L1.70169447,52.9261157 Z" id="Path"></path>
                <polygon id="Path" points="49.4823309 16.8366328 57.6985436 12.5213329 62 4.07389709 57.9896082 0 49.677634 4.3735387 45.4220424 12.7120488 35.4285714 22.875416 39.4811739 27"></polygon>
                <path d="M51.1538783,39.4536702 L50.3710883,39.374919 C48.952863,39.374919 47.6081877,39.6702358 46.3527409,40.1427426 L22.4942813,15.8956831 C22.95929,14.6199925 23.2499203,13.2536344 23.2499203,11.8125405 L23.1724189,11.0171281 C22.7617123,4.87065398 17.7784211,0 11.6249602,0 C9.83465155,0 8.15677099,0.444917998 6.64166895,1.181267 L14.3645339,9.02866201 C14.7714164,9.44210546 15.0504471,9.93028477 15.236425,10.4461824 C15.7440084,11.8399998 15.4689293,13.4702 14.3645339,14.5962894 C13.6088949,15.364113 12.6169275,15.7499676 11.6249602,15.7499676 C11.1677272,15.7499676 10.7143183,15.647643 10.2802848,15.4822397 C9.77270139,15.2853618 9.29214151,15.0097329 8.88525898,14.5924037 L1.16252151,6.74889441 C0.437857608,8.28842726 0,9.99336339 0,11.8125405 C0,18.065225 4.79336172,23.1288711 10.8422977,23.5462003 L11.6250876,23.6249514 C13.0433129,23.6249514 14.3879883,23.3296347 15.643435,22.8611431 L39.497943,47.1043169 C39.04071,48.3800075 38.7500797,49.7463656 38.7500797,51.1874595 L38.8314052,51.9828719 C39.2344636,58.1332318 44.2215789,63 50.3750398,63 C52.1653485,63 53.8470531,62.562983 55.3583311,61.818733 L47.6354661,53.971338 C47.2324077,53.5617803 46.9495529,53.0697152 46.7557993,52.5578329 C46.2482159,51.1640155 46.523295,49.5299295 47.6354661,48.4038401 C48.3833295,47.6360166 49.3830725,47.2501619 50.3750398,47.2501619 C50.8322728,47.2501619 51.2817301,47.3486008 51.7235393,47.5178899 C52.2311227,47.7108819 52.7155067,47.9865109 53.1146136,48.4038401 L60.8374785,56.2512351 C61.5659665,54.707687 62,53.0067661 62,51.187589 C61.9961759,44.9346454 57.2028142,39.8709994 51.1538783,39.4536702 Z" id="Path"></path>
            </g>
        </g>
    </g>
</svg>