<?xml version="1.0" encoding="UTF-8"?>
<svg width="73px" height="73px" viewBox="0 0 73 73" version="1.1" xmlns="http://www.w3.org/2000/svg" xmlns:xlink="http://www.w3.org/1999/xlink">
    <!-- Generator: Sketch 52.2 (67145) - http://www.bohemiancoding.com/sketch -->
    <title>auction</title>
    <desc>Created with Sketch.</desc>
    <g id="Page-1" stroke="none" stroke-width="1" fill="none" fill-rule="evenodd">
        <g id="Artboard" transform="translate(-506.000000, -1286.000000)" fill="#009AF2">
            <g id="auction" transform="translate(506.000000, 1286.000000)">
                <path d="M42.4549279,58 L5.54522236,58 C2.48407452,58 0,60.38385 0,63.3222783 L0,73 L48,73 L48,63.3222783 C48,60.38385 45.5160757,58 42.4549279,58 Z" id="Path"></path>
                <path d="M72.0170933,58.275446 L38.7407169,24.9929794 L45.1680421,18.5759343 C46.2278126,19.5106341 47.8575324,19.4649231 48.8603227,18.4619537 C49.9088158,17.4019941 49.9088158,15.7035653 48.8603227,14.6436056 L35.0028819,0.794969755 C33.9543888,-0.264989918 32.2449859,-0.264989918 31.1966412,0.794969755 C30.1368707,1.8436501 30.1368707,3.55335823 31.1966412,4.60189017 L31.082681,4.48790963 L13.4871084,22.0750479 L13.6010686,22.2003077 C12.5525755,21.140348 10.8431726,21.140348 9.79482783,22.2003077 C8.73505739,23.2489881 8.73505739,24.9586962 9.79482783,26.0073765 L23.6409913,39.8672917 C24.7007618,40.915972 26.4101647,40.915972 27.4586578,39.8672917 C28.5071509,38.807332 28.5071509,37.1090516 27.4586578,36.0492404 L27.572618,36.1629241 L33.9999432,29.745879 L67.2648939,63.0169178 C68.5754361,64.3276941 70.7065511,64.3276941 72.0170933,63.0169178 C73.3276356,61.7061416 73.3276356,59.5860738 72.0170933,58.275446 Z" id="Path"></path>
            </g>
        </g>
    </g>
</svg>