<?xml version="1.0" encoding="UTF-8"?>
<svg width="20px" height="20px" viewBox="0 0 20 20" version="1.1" xmlns="http://www.w3.org/2000/svg" xmlns:xlink="http://www.w3.org/1999/xlink">
    <!-- Generator: sketchtool 52.2 (67145) - http://www.bohemiancoding.com/sketch -->
    <title>BC8D87B5-6A6D-4839-9DAD-5809B9E186EE</title>
    <desc>Created with sketchtool.</desc>
    <g id="Page-1" stroke="none" stroke-width="1" fill="none" fill-rule="evenodd">
        <g id="Лк" transform="translate(-1280.000000, -375.000000)" fill="#494949" fill-rule="nonzero">
            <g id="Навигация" transform="translate(1260.000000, 206.000000)">
                <g id="mail" transform="translate(20.000000, 169.000000)">
                    <path d="M9.99973333,0 C4.47713333,0 6.66666667e-05,4.4772 6.66666667e-05,9.9998 C6.66666667e-05,15.5222667 4.47713333,19.9998 9.99973333,19.9998 C15.5223333,19.9998 19.9997333,15.5222667 19.9997333,9.9998 C19.9997333,4.4772 15.5223333,0 9.99973333,0 Z M9.68626667,6.67726667 L17.1438667,6.67726667 C17.1947333,6.67726667 17.244,6.68333333 17.2922,6.69213333 L13.1156667,9.09326667 L9.58473333,6.68746667 C9.61833333,6.68333333 9.65133333,6.67726667 9.68626667,6.67726667 Z M4.03813333,12.354 L4.03813333,11.3168 L7.3662,11.3168 L7.3256,11.6532667 L7.31813333,11.7153333 L7.31813333,11.7777333 C7.31813333,11.979 7.35153333,12.1724667 7.41133333,12.354 L4.03813333,12.354 Z M7.4862,10.3228 L2.9142,10.3228 L2.9142,9.28533333 L7.61186667,9.28533333 L7.4862,10.3228 Z M7.83806667,7.41453333 L7.77373333,7.94553333 L1.90566667,7.94553333 L1.90566667,6.90806667 L7.93126667,6.90806667 C7.878,7.06853333 7.84513333,7.2382 7.83806667,7.41453333 Z M16.625,12.5901333 L9.16753333,12.5901333 C8.94433333,12.5901333 8.74233333,12.5000667 8.59553333,12.3542667 C8.59553333,12.3542667 8.59553333,12.3542667 8.59553333,12.3540667 C8.5596,12.3182667 8.52706667,12.2788667 8.4982,12.2368667 C8.49753333,12.2358 8.49626667,12.2348 8.4956,12.2337333 C8.4688,12.1941333 8.44646667,12.1516 8.4268,12.1076667 C8.42486667,12.1033333 8.42193333,12.0995333 8.41986667,12.0950667 C8.4022,12.0536 8.3898,12.0094667 8.37926667,11.9646667 C8.37733333,11.9568667 8.37373333,11.9498 8.3722,11.942 C8.36133333,11.8887333 8.3556,11.8339333 8.3556,11.7777333 L8.63193333,9.4938 L8.6572,9.28513333 L8.8744,7.48913333 C8.8744,7.4378 8.8806,7.38813333 8.8898,7.3396 C8.89086667,7.3344 8.89033333,7.32873333 8.89153333,7.32353333 C8.8922,7.32386667 8.89273333,7.3244 8.89346667,7.32493333 C8.9168,7.21413333 8.96093333,7.1112 9.024,7.0218 L9.024,7.4138 L12.8734,10.0226 C12.8786,10.0262 12.8842667,10.0281333 12.8896667,10.0312667 C12.8952,10.0347333 12.9009333,10.0374667 12.9068,10.0406 C12.9372,10.0561333 12.9683333,10.0686 13.0002,10.0769333 C13.0036667,10.0778 13.0068,10.0783333 13.0102,10.079 C13.0451333,10.0872667 13.0806,10.0923333 13.1156667,10.0923333 L13.116,10.0923333 C13.1163333,10.0923333 13.1165333,10.0923333 13.1166667,10.0923333 C13.1518,10.0923333 13.1872,10.0873333 13.2221333,10.079 C13.2256,10.0783333 13.2287333,10.0778 13.2321333,10.0769333 C13.2639333,10.0686667 13.2950667,10.0562 13.3255333,10.0406 C13.3312667,10.0374667 13.3369333,10.0347333 13.3426667,10.0312667 C13.348,10.0281333 13.3535333,10.0262667 13.3589333,10.0226 L17.9450667,7.37486667 C17.9504,7.41253333 17.9564667,7.45006667 17.9564667,7.48933333 L17.4377333,11.7779333 C17.4372667,12.2266667 17.0736667,12.5901333 16.625,12.5901333 Z" id="Shape"></path>
                </g>
            </g>
        </g>
    </g>
</svg>
