<?xml version="1.0" encoding="UTF-8"?>
<svg width="20px" height="20px" viewBox="0 0 20 20" version="1.1" xmlns="http://www.w3.org/2000/svg" xmlns:xlink="http://www.w3.org/1999/xlink">
    <!-- Generator: sketchtool 52.2 (67145) - http://www.bohemiancoding.com/sketch -->
    <title>8FF96CDE-4A77-4BA3-9EC1-31FB57E12A12</title>
    <desc>Created with sketchtool.</desc>
    <g id="Page-1" stroke="none" stroke-width="1" fill="none" fill-rule="evenodd">
        <g id="Лк-Покупки" transform="translate(-1280.000000, -225.000000)" fill="#494949" fill-rule="nonzero">
            <g id="Навигация" transform="translate(1260.000000, 207.000000)">
                <g id="user" transform="translate(20.000000, 18.000000)">
                    <path d="M9.99966667,0 C4.47706667,0 0,4.4772 0,9.9998 C0,15.5222667 4.47706667,19.9998 9.99966667,19.9998 C15.5222667,19.9998 19.9996667,15.5222667 19.9996667,9.9998 C19.9996667,4.47706667 15.5222667,0 9.99966667,0 Z M10.0301333,14.7175333 L10.0301333,14.7174 L9.96906667,14.7174 L5.6976,14.7174 C5.6976,11.5936667 8.44106667,11.5944 9.04986667,10.7776 L9.11953333,10.4051333 C8.2642,9.97166667 7.6604,8.9266 7.6604,7.70433333 C7.6604,6.09406667 8.70786667,4.78846667 9.99966667,4.78846667 C11.2914667,4.78846667 12.3389333,6.09406667 12.3389333,7.70433333 C12.3389333,8.9162 11.7458667,9.95473333 10.9019333,10.3950667 L10.9812667,10.8183333 C11.6492,11.5955333 14.3014,11.6462 14.3014,14.7175333 L10.0301333,14.7175333 Z" id="Shape"></path>
                </g>
            </g>
        </g>
    </g>
</svg>
