<?xml version="1.0" encoding="UTF-8"?>
<svg width="71px" height="60px" viewBox="0 0 71 60" version="1.1" xmlns="http://www.w3.org/2000/svg" xmlns:xlink="http://www.w3.org/1999/xlink">
    <!-- Generator: Sketch 52.2 (67145) - http://www.bohemiancoding.com/sketch -->
    <title>003-rental</title>
    <desc>Created with Sketch.</desc>
    <g id="Page-1" stroke="none" stroke-width="1" fill="none" fill-rule="evenodd">
        <g id="Artboard" transform="translate(-1067.000000, -1291.000000)" fill="#009AF2" fill-rule="nonzero">
            <g id="003-rental" transform="translate(1067.000000, 1291.000000)">
                <path d="M67.2905273,35.5856075 L52.6462227,33.117757 L48.4023086,26.6823364 C47.3015313,25.0146729 45.4613555,24.018785 43.479457,24.018785 L21.6039688,24.018785 C19.6220703,24.018785 17.7817559,25.0146729 16.6811172,26.6823364 L12.399623,33.176215 L3.36279297,35.46 C1.38380664,35.9593458 0,37.7496729 0,39.8116822 L0,47.3248598 C0,49.0874299 0.6789375,50.7448598 1.9125625,51.9919626 C3.12885352,53.22 4.81025,53.9254206 6.52922656,53.9254206 L10.3542129,53.9254206 C10.4062148,53.9254206 10.4500352,53.9007477 10.5006504,53.8954206 C11.1766758,57.3180841 14.1672734,59.9066355 17.75,59.9066355 C21.3327266,59.9066355 24.3233242,57.3180841 24.9993496,53.8954206 C25.0499648,53.9007477 25.0937852,53.9254206 25.1457871,53.9254206 L44.375,53.9254206 C44.427002,53.9254206 44.4708223,53.9007477 44.5214375,53.8954206 C45.1974629,57.3180841 48.1880605,59.9066355 51.7707871,59.9066355 C55.3535137,59.9066355 58.3441113,57.3180841 59.0201367,53.8954206 C59.070752,53.9007477 59.1145723,53.9254206 59.1665742,53.9254206 L65.6494844,53.9254206 C66.7761934,53.9254206 67.7903008,53.2931776 68.2957598,52.2723364 L70.6878496,47.4329439 C70.7398516,47.3278037 70.7803438,47.2167757 70.8062754,47.1029439 L70.9622813,46.4341121 C70.9883516,46.3230841 70.9998613,46.2092523 70.9998613,46.0952804 L70.9998613,40.0103271 C71,37.806729 69.4399414,35.9463084 67.2905273,35.5856075 Z M17.75,56.9158879 C15.3029961,56.9158879 13.3125,54.9036449 13.3125,52.4299065 C13.3125,49.9561682 15.3029961,47.9439252 17.75,47.9439252 C20.1970039,47.9439252 22.1875,49.9561682 22.1875,52.4299065 C22.1875,54.9036449 20.1970039,56.9158879 17.75,56.9158879 Z M46.362584,38.9719626 L19.2292129,38.9719626 C18.7091934,38.9719626 18.2267539,38.6959346 17.9609199,38.2446729 C17.6921738,37.7934112 17.6806641,37.2342056 17.926252,36.7713084 L21.0925469,30.7899533 C21.3496445,30.3036449 21.849418,30 22.3955078,30 L42.6877793,30 C43.1992012,30 43.6758164,30.2671963 43.9445625,30.7068224 L47.6193672,36.6881776 C47.9025352,37.1496729 47.916957,37.7293458 47.6540352,38.2040187 C47.3940254,38.6784112 46.8999375,38.9719626 46.362584,38.9719626 Z M51.7707871,56.9158879 C49.3237832,56.9158879 47.3332871,54.9036449 47.3332871,52.4299065 C47.3332871,49.9561682 49.3237832,47.9439252 51.7707871,47.9439252 C54.217791,47.9439252 56.2082871,49.9561682 56.2082871,52.4299065 C56.2082871,54.9036449 54.217791,56.9158879 51.7707871,56.9158879 Z" id="Shape"></path>
                <path d="M15.4504043,11.8048598 L19.8879043,14.7954673 C20.1305801,14.9590654 20.4166602,15.0466822 20.7084258,15.0466822 L33.5763438,15.0466822 C35.241793,18.5733645 38.7725176,21.0280374 42.8957871,21.0280374 C48.6141992,21.0280374 53.25,16.3415888 53.25,10.5607009 C53.25,4.77981308 48.6141992,0.093364486 42.8957871,0.093364486 C38.7725176,0.093364486 35.241793,2.54803738 33.5762051,6.07471963 L20.7082871,6.07471963 C20.4165215,6.07471963 20.1304414,6.16233645 19.8877656,6.32593458 L15.4502656,9.31654206 C15.0400742,9.59397196 14.7915742,10.0613551 14.7915742,10.5607009 C14.7915742,11.0600467 15.0400742,11.5274299 15.4504043,11.8048598 Z M45.8542129,7.57009346 C47.4865195,7.57009346 48.8125,8.9121028 48.8125,10.5607009 C48.8125,12.2092991 47.4863809,13.5513084 45.8542129,13.5513084 C44.2219063,13.5513084 42.8959258,12.2092991 42.8959258,10.5607009 C42.8957871,8.9121028 44.2219063,7.57009346 45.8542129,7.57009346 Z" id="Shape"></path>
            </g>
        </g>
    </g>
</svg>