<?xml version="1.0" encoding="UTF-8"?>
<svg width="20px" height="20px" viewBox="0 0 20 20" version="1.1" xmlns="http://www.w3.org/2000/svg" xmlns:xlink="http://www.w3.org/1999/xlink">
    <!-- Generator: sketchtool 52.2 (67145) - http://www.bohemiancoding.com/sketch -->
    <title>8CCE99AF-F829-4D19-BADF-4054ED2660CB</title>
    <desc>Created with sketchtool.</desc>
    <g id="Page-1" stroke="none" stroke-width="1" fill="none" fill-rule="evenodd">
        <g id="Главная2" transform="translate(-1331.000000, -17.000000)" fill="#2CACEB" fill-rule="nonzero">
            <g id="Хэдэр" transform="translate(406.000000, 17.000000)">
                <g id="download-(1)" transform="translate(935.000000, 10.000000) rotate(-90.000000) translate(-935.000000, -10.000000) translate(925.000000, 0.000000)">
                    <path d="M9.99966667,0 C4.47706667,0 0,4.47726667 0,9.9998 C0,15.5222667 4.47706667,19.9998 9.99966667,19.9998 C15.5222667,19.9998 19.9998667,15.5222667 19.9998667,9.9998 C19.9998,4.47726667 15.5222667,0 9.99966667,0 Z M7.3978,7.0238 C7.53613333,6.88546667 7.71733333,6.81633333 7.89853333,6.81633333 C8.07973333,6.81633333 8.2608,6.88546667 8.39906667,7.0238 L9.28553333,7.91013333 L9.28553333,7.6494 L9.28553333,4.16513333 C9.28553333,3.774 9.60246667,3.45706667 9.9936,3.45706667 C10.3847333,3.45706667 10.7016667,3.774 10.7016667,4.16513333 L10.7016667,7.64933333 L10.7016667,7.958 L11.0103333,7.64933333 L11.6360667,7.02373333 C11.7744,6.8854 11.9554,6.81626667 12.1366,6.81626667 C12.3178,6.81626667 12.499,6.8854 12.6373333,7.02373333 C12.8074667,7.19366667 12.8721333,7.429 12.8328667,7.64933333 C12.8328667,7.64953333 12.8326667,7.64966667 12.8326667,7.64986667 C12.8297333,7.6658 12.8247333,7.68113333 12.8207333,7.69673333 C12.8146667,7.72113333 12.8081333,7.74533333 12.7992667,7.769 C12.7934,7.78493333 12.7866667,7.80046667 12.7795333,7.816 C12.7684667,7.84073333 12.7556667,7.8644 12.7416667,7.88793333 C12.7342,7.9004 12.7273333,7.9128 12.719,7.92473333 C12.6948,7.95966667 12.6683333,7.99353333 12.6372,8.02466667 L11.6295333,9.03233333 L10.5234667,10.1384 C10.385,10.2767333 10.2039333,10.3454 10.0229333,10.3454 C10.0212,10.3454 10.0194667,10.3454 10.0177333,10.3454 C10.016,10.3454 10.0141333,10.3454 10.0125333,10.3454 C9.83153333,10.3454 9.65046667,10.2767333 9.512,10.1384 L8.40593333,9.03233333 L7.39826667,8.02466667 C7.36713333,7.99353333 7.34066667,7.9598 7.3168,7.92493333 C7.30833333,7.91266667 7.3014,7.90006667 7.2938,7.8876 C7.28,7.86426667 7.26733333,7.84073333 7.25626667,7.81633333 C7.249,7.8004 7.24206667,7.78466667 7.2362,7.76846667 C7.22773333,7.74526667 7.22133333,7.7218 7.21526667,7.69806667 C7.21113333,7.68166667 7.20573333,7.66573333 7.2028,7.64913333 C7.16293333,7.42906667 7.22746667,7.19373333 7.3978,7.0238 Z M15.4382667,13.9543333 L15.4380667,13.9543333 C15.4380667,14.9101333 14.5009333,15.6588667 13.3044,15.6588667 L6.6956,15.6588667 C5.49926667,15.6588667 4.56193333,14.9102 4.56193333,13.9543333 L4.56193333,9.354 C4.56193333,8.5462 5.23246667,7.88813333 6.1622,7.70326667 C6.20246667,8.102 6.37713333,8.47166667 6.66446667,8.75886667 L6.93833333,9.03273333 L6.6956,9.03273333 C6.21126667,9.03273333 5.9452,9.27413333 5.9452,9.354 L5.9452,13.9543333 C5.9452,14.0344 6.21133333,14.2756 6.6956,14.2756 L13.3046,14.2756 C13.7889333,14.2756 14.055,14.0342 14.055,13.9543333 L14.055,9.354 C14.055,9.27413333 13.7888667,9.03273333 13.3046,9.03273333 L13.0966,9.03273333 L13.3706667,8.75866667 C13.6561333,8.4734 13.8302667,8.10626667 13.8717333,7.7102 C14.7838,7.9044 15.4382667,8.5562 15.4382667,9.3542 L15.4382667,13.9543333 Z" id="Shape"></path>
                </g>
            </g>
        </g>
    </g>
</svg>