<?xml version="1.0" encoding="UTF-8"?>
<svg width="63px" height="63px" viewBox="0 0 63 63" version="1.1" xmlns="http://www.w3.org/2000/svg" xmlns:xlink="http://www.w3.org/1999/xlink">
    <!-- Generator: Sketch 52.2 (67145) - http://www.bohemiancoding.com/sketch -->
    <title>007-health-care</title>
    <desc>Created with Sketch.</desc>
    <g id="Page-1" stroke="none" stroke-width="1" fill="none" fill-rule="evenodd">
        <g id="Artboard" transform="translate(-783.000000, -1067.000000)" fill="#009AF2">
            <g id="007-health-care" transform="translate(783.000000, 1067.000000)">
                <polygon id="Path" points="51.3 21.7748859 42.9923077 21.7748859 42.9923077 31.4997181 33.4384615 31.4997181 33.4384615 39.956094 42.9923077 39.956094 42.9923077 49.6809262 51.3 49.6809262 51.3 39.956094 60.8538462 39.956094 60.8538462 31.4997181 51.3 31.4997181"></polygon>
                <path d="M29.2846154,27.2715302 L38.8384615,27.2715302 L38.8384615,17.546698 L55.4538462,17.546698 L55.4538462,27.2715302 L60.2721692,27.2715302 C61.9985077,24.4527383 63,21.2570738 63,17.7538792 C63,7.98930201 55.2249692,0.0718791946 45.6340154,0.0718791946 C39.8065846,0.0718791946 34.65,2.99369799 31.5,7.4774094 C28.35,2.99355705 23.1934154,0.0706107383 17.3659846,0.0706107383 C7.77503077,0.0706107383 0,7.98620134 0,17.7509195 C0,21.9957383 1.46935385,25.8904631 3.91832308,28.9381409 L31.5,62.9293893 L38.8384615,53.8854362 L38.8384615,44.1842819 L29.2846154,44.1842819 L29.2846154,27.2715302 Z" id="Path"></path>
            </g>
        </g>
    </g>
</svg>