<?xml version="1.0" encoding="UTF-8"?>
<svg width="20px" height="20px" viewBox="0 0 20 20" version="1.1" xmlns="http://www.w3.org/2000/svg" xmlns:xlink="http://www.w3.org/1999/xlink">
    <!-- Generator: sketchtool 52.2 (67145) - http://www.bohemiancoding.com/sketch -->
    <title>0B8E6721-36E4-4FAF-860B-6B14BC8D8711</title>
    <desc>Created with sketchtool.</desc>
    <g id="Page-1" stroke="none" stroke-width="1" fill="none" fill-rule="evenodd">
        <g id="Главная2" transform="translate(-976.000000, -17.000000)" fill="#2CACEB">
            <g id="Хэдэр" transform="translate(406.000000, 17.000000)">
                <g id="smartphone" transform="translate(570.000000, 0.000000)">
                    <circle id="Oval" cx="10.0000667" cy="15.0723333" r="1"></circle>
                    <path d="M12.1794,4.54986667 L7.8206,4.54986667 C7.57626667,4.54986667 7.37746667,4.7394 7.37746667,4.97193333 L7.37746667,13.2114 C7.37746667,13.4441333 7.57613333,13.6334667 7.8206,13.6334667 L12.1794,13.6334667 C12.4237333,13.6334667 12.6225333,13.4439333 12.6225333,13.2114 L12.6225333,4.97193333 C12.6224,4.7392 12.4237333,4.54986667 12.1794,4.54986667 Z" id="Path"></path>
                    <path d="M9.99973333,0 C4.47713333,0 6.66666667e-05,4.4774 6.66666667e-05,9.9998 C6.66666667e-05,15.5222 4.47713333,20 9.99973333,20 C15.5223333,20 19.9999333,15.5224667 19.9999333,9.9998 C19.9999333,4.47713333 15.5223333,0 9.99973333,0 Z M13.8902667,14.9347333 C13.8902667,15.6986 13.2709333,16.318 12.507,16.318 L7.49273333,16.318 C6.72886667,16.318 6.10946667,15.6986667 6.10946667,14.9347333 L6.10946667,5.02153333 C6.10946667,4.25766667 6.7288,3.63826667 7.49273333,3.63826667 L12.507,3.63826667 C13.2708667,3.63826667 13.8902667,4.2576 13.8902667,5.02153333 L13.8902667,14.9347333 Z" id="Shape" fill-rule="nonzero"></path>
                </g>
            </g>
        </g>
    </g>
</svg>