<?xml version="1.0" encoding="UTF-8"?>
<svg width="75px" height="72px" viewBox="0 0 75 72" version="1.1" xmlns="http://www.w3.org/2000/svg" xmlns:xlink="http://www.w3.org/1999/xlink">
    <!-- Generator: Sketch 52.2 (67145) - http://www.bohemiancoding.com/sketch -->
    <title>001-protection-symbol-of-opened-umbrella-silhouette-under-raindrops</title>
    <desc>Created with Sketch.</desc>
    <g id="Page-1" stroke="none" stroke-width="1" fill="none" fill-rule="evenodd">
        <g id="Artboard" transform="translate(-495.000000, -1059.000000)" fill="#FFFFFF" fill-rule="nonzero">
            <g id="001-protection-symbol-of-opened-umbrella-silhouette-under-raindrops" transform="translate(495.000000, 1059.000000)">
                <path fill="#4F99EF" d="M75,38.6554197 C73.1773195,37.3200573 70.4108844,36.4677142 67.3119721,36.4677142 C62.5139094,36.4677142 58.5104584,38.510239 57.5790813,41.2266921 L57.1793244,41.2266921 C56.2707415,38.4926224 52.2550356,36.4321062 47.4361394,36.4321062 C44.3322026,36.4321062 41.5671155,37.2898217 39.7454154,38.6290573 L39.7454154,61.6222047 C39.7454154,67.3448475 35.1789715,72 29.5660763,72 C23.9530586,72 19.3867372,67.3447226 19.3867372,61.6222047 C19.3867372,60.3576834 20.3918892,59.3330476 21.6322139,59.3330476 C22.8725386,59.3330476 23.8776906,60.3576834 23.8776906,61.6222047 C23.8776906,64.819928 26.4294188,67.4214359 29.5660763,67.4214359 C32.7026113,67.4214359 35.2543395,64.819928 35.2543395,61.6222047 L35.2543395,38.6664145 C33.4321492,37.3264292 30.665714,36.4677142 27.5603067,36.4677142 C22.7621214,36.4677142 18.7586704,38.510239 17.8274158,41.2266921 L17.4277815,41.2266921 C16.5190761,38.4926224 12.5033701,36.4321062 7.68459649,36.4321062 C4.58764504,36.4321062 1.82255795,37.2831999 0,38.617063 C1.46446796,22.3140966 16.5109878,9.35503362 35.254462,8.38999436 L35.254462,6.67868639 C35.254462,5.41404017 36.259614,4.38940436 37.4999387,4.38940436 C38.7402634,4.38940436 39.7454154,5.41416511 39.7454154,6.67868639 L39.7454154,8.39024424 C58.5020025,9.35740749 73.5555076,22.3354614 75,38.6554197 Z M5.42441385,4.38940436 C5.42441385,4.38940436 2.16937338,10.9402768 2.16937338,12.7730268 C2.16937338,14.6056518 3.62673346,16.0915674 5.42441385,16.0915674 C7.22209423,16.0915674 8.67945431,14.6057768 8.67945431,12.7730268 C8.67945431,10.9401518 5.42441385,4.38940436 5.42441385,4.38940436 Z M14.6397776,0 C14.6397776,0 12.1979765,4.91427877 12.1979765,6.28924732 C12.1979765,7.66421587 13.2912416,8.77868379 14.6397776,8.77868379 C15.9883137,8.77868379 17.0815788,7.66409093 17.0815788,6.28924732 C17.0815788,4.91440371 14.6397776,0 14.6397776,0 Z" id="Shape"></path>
            </g>
        </g>
    </g>
</svg>