<?xml version="1.0" encoding="UTF-8"?>
<svg width="20px" height="17px" viewBox="0 0 20 17" version="1.1" xmlns="http://www.w3.org/2000/svg" xmlns:xlink="http://www.w3.org/1999/xlink">
    <!-- Generator: sketchtool 52.2 (67145) - http://www.bohemiancoding.com/sketch -->
    <title>5791F75C-D034-4893-A3C3-A3E17DF05272</title>
    <desc>Created with sketchtool.</desc>
    <g id="Page-1" stroke="none" stroke-width="1" fill="none" fill-rule="evenodd">
        <g id="Главная2" transform="translate(-1386.000000, -124.000000)" fill="#A5A5A5">
            <g id="Поиск" transform="translate(617.000000, 106.000000)">
                <g id="Вишлист" transform="translate(769.000000, 18.000000)">
                    <path d="M20,5.29959514 C20,2.37266176 17.5818671,0 14.5989905,0 C12.6512272,0 10.9502171,1.01502287 9.99993911,2.53194116 C9.04978294,1.01502287 7.34804219,0 5.40031945,0 C2.4174428,0 0,2.37266176 0,5.29959514 C0,6.89314599 0.719639389,8.3188142 1.85383555,9.2896658 L9.50708213,16.7996959 C9.63778543,16.9279479 9.81504671,17 9.99993911,17 C10.1848315,17 10.3620928,16.9279479 10.4927961,16.7996959 L18.1460427,9.2896658 C19.2802794,8.3188142 20,6.89314599 20,5.29959514 Z" id="Path"></path>
                </g>
            </g>
        </g>
    </g>
</svg>